<mxfile host="app.diagrams.net" agent="Mozilla/5.0 (Windows NT 10.0; Win64; x64) AppleWebKit/537.36 (KHTML, like Gecko) Chrome/140.0.0.0 Safari/537.36" version="28.2.0">
  <diagram name="Page-1" id="igDka7bhso3B9Q6qDDzC">
    <mxGraphModel grid="1" page="1" gridSize="10" guides="1" tooltips="1" connect="1" arrows="1" fold="1" pageScale="1" pageWidth="850" pageHeight="1100" math="0" shadow="0">
      <root>
        <mxCell id="0" />
        <mxCell id="1" parent="0" />
        <mxCell id="aQfyGNvGURDbzpAt9u-3-1" style="edgeStyle=none;curved=1;rounded=0;orthogonalLoop=1;jettySize=auto;html=1;exitX=1;exitY=0.5;exitDx=0;exitDy=0;entryX=0;entryY=0;entryDx=0;entryDy=0;fontSize=12;startSize=8;endSize=8;" edge="1" parent="1" source="2eKrWPMBMteFsVa5F8Ts-3" target="Kv9q_rFlYVCfyKu3xNc0-1">
          <mxGeometry relative="1" as="geometry" />
        </mxCell>
        <mxCell id="2eKrWPMBMteFsVa5F8Ts-3" value="Start" style="ellipse;whiteSpace=wrap;html=1;" vertex="1" parent="1">
          <mxGeometry x="265" width="105" height="80" as="geometry" />
        </mxCell>
        <mxCell id="norzUJGB32hssgNVfdDI-1" value="Text" style="text;strokeColor=none;align=center;fillColor=none;html=1;verticalAlign=middle;whiteSpace=wrap;rounded=0;" vertex="1" parent="1">
          <mxGeometry x="380" y="510" width="60" height="30" as="geometry" />
        </mxCell>
        <mxCell id="aQfyGNvGURDbzpAt9u-3-7" style="edgeStyle=none;curved=1;rounded=0;orthogonalLoop=1;jettySize=auto;html=1;exitX=1;exitY=0;exitDx=0;exitDy=0;entryX=0;entryY=0;entryDx=0;entryDy=0;fontSize=12;startSize=8;endSize=8;" edge="1" parent="1" source="Kv9q_rFlYVCfyKu3xNc0-1" target="Kv9q_rFlYVCfyKu3xNc0-4">
          <mxGeometry relative="1" as="geometry" />
        </mxCell>
        <mxCell id="Kv9q_rFlYVCfyKu3xNc0-1" value="Declarations" style="swimlane;whiteSpace=wrap;html=1;" vertex="1" parent="1">
          <mxGeometry x="420" y="20" width="240" height="330" as="geometry" />
        </mxCell>
        <mxCell id="aQfyGNvGURDbzpAt9u-3-3" style="edgeStyle=none;curved=1;rounded=0;orthogonalLoop=1;jettySize=auto;html=1;exitX=0.5;exitY=1;exitDx=0;exitDy=0;entryX=0.5;entryY=0;entryDx=0;entryDy=0;fontSize=12;startSize=8;endSize=8;" edge="1" parent="Kv9q_rFlYVCfyKu3xNc0-1" source="2eKrWPMBMteFsVa5F8Ts-7" target="2eKrWPMBMteFsVa5F8Ts-6">
          <mxGeometry relative="1" as="geometry" />
        </mxCell>
        <mxCell id="2eKrWPMBMteFsVa5F8Ts-7" value="numOther to 0" style="rounded=0;whiteSpace=wrap;html=1;" vertex="1" parent="Kv9q_rFlYVCfyKu3xNc0-1">
          <mxGeometry x="12.5" y="70" width="210" height="30" as="geometry" />
        </mxCell>
        <mxCell id="w_F7xR8iNVxsriUdHIQA-3" style="edgeStyle=orthogonalEdgeStyle;rounded=0;orthogonalLoop=1;jettySize=auto;html=1;exitX=0.5;exitY=1;exitDx=0;exitDy=0;entryX=0.5;entryY=0;entryDx=0;entryDy=0;" edge="1" parent="Kv9q_rFlYVCfyKu3xNc0-1" source="2eKrWPMBMteFsVa5F8Ts-6" target="Kv9q_rFlYVCfyKu3xNc0-9">
          <mxGeometry relative="1" as="geometry" />
        </mxCell>
        <mxCell id="2eKrWPMBMteFsVa5F8Ts-6" value="numBathrooms to 0" style="rounded=0;whiteSpace=wrap;html=1;" vertex="1" parent="Kv9q_rFlYVCfyKu3xNc0-1">
          <mxGeometry x="15" y="110" width="205" height="30" as="geometry" />
        </mxCell>
        <mxCell id="aQfyGNvGURDbzpAt9u-3-6" style="edgeStyle=none;curved=1;rounded=0;orthogonalLoop=1;jettySize=auto;html=1;exitX=0.5;exitY=1;exitDx=0;exitDy=0;entryX=0.5;entryY=0;entryDx=0;entryDy=0;fontSize=12;startSize=8;endSize=8;" edge="1" parent="Kv9q_rFlYVCfyKu3xNc0-1" source="Kv9q_rFlYVCfyKu3xNc0-9" target="Kv9q_rFlYVCfyKu3xNc0-10">
          <mxGeometry relative="1" as="geometry" />
        </mxCell>
        <mxCell id="Kv9q_rFlYVCfyKu3xNc0-9" value="bathroomCost to 0" style="rounded=0;whiteSpace=wrap;html=1;" vertex="1" parent="Kv9q_rFlYVCfyKu3xNc0-1">
          <mxGeometry x="15" y="160" width="205" height="40" as="geometry" />
        </mxCell>
        <mxCell id="w_F7xR8iNVxsriUdHIQA-15" style="edgeStyle=orthogonalEdgeStyle;rounded=0;orthogonalLoop=1;jettySize=auto;html=1;exitX=0.5;exitY=1;exitDx=0;exitDy=0;" edge="1" parent="Kv9q_rFlYVCfyKu3xNc0-1" source="Kv9q_rFlYVCfyKu3xNc0-10" target="2eKrWPMBMteFsVa5F8Ts-8">
          <mxGeometry relative="1" as="geometry" />
        </mxCell>
        <mxCell id="Kv9q_rFlYVCfyKu3xNc0-10" value="otherCost to 0" style="rounded=0;whiteSpace=wrap;html=1;" vertex="1" parent="Kv9q_rFlYVCfyKu3xNc0-1">
          <mxGeometry x="17.5" y="220" width="205" height="30" as="geometry" />
        </mxCell>
        <mxCell id="aQfyGNvGURDbzpAt9u-3-2" style="edgeStyle=none;curved=1;rounded=0;orthogonalLoop=1;jettySize=auto;html=1;exitX=0.5;exitY=1;exitDx=0;exitDy=0;entryX=0.5;entryY=0;entryDx=0;entryDy=0;fontSize=12;startSize=8;endSize=8;" edge="1" parent="Kv9q_rFlYVCfyKu3xNc0-1" source="2eKrWPMBMteFsVa5F8Ts-4" target="2eKrWPMBMteFsVa5F8Ts-7">
          <mxGeometry relative="1" as="geometry" />
        </mxCell>
        <mxCell id="2eKrWPMBMteFsVa5F8Ts-4" value="lastName to &quot;&quot;" style="rounded=0;whiteSpace=wrap;html=1;" vertex="1" parent="Kv9q_rFlYVCfyKu3xNc0-1">
          <mxGeometry x="12.5" y="30" width="205" height="30" as="geometry" />
        </mxCell>
        <mxCell id="w_F7xR8iNVxsriUdHIQA-16" style="edgeStyle=orthogonalEdgeStyle;rounded=0;orthogonalLoop=1;jettySize=auto;html=1;exitX=1;exitY=0.5;exitDx=0;exitDy=0;" edge="1" parent="Kv9q_rFlYVCfyKu3xNc0-1" source="2eKrWPMBMteFsVa5F8Ts-8">
          <mxGeometry relative="1" as="geometry">
            <mxPoint x="250" as="targetPoint" />
          </mxGeometry>
        </mxCell>
        <mxCell id="2eKrWPMBMteFsVa5F8Ts-8" value="serviceCharge to 40" style="rounded=0;whiteSpace=wrap;html=1;" vertex="1" parent="Kv9q_rFlYVCfyKu3xNc0-1">
          <mxGeometry x="20" y="270" width="205" height="30" as="geometry" />
        </mxCell>
        <mxCell id="Kv9q_rFlYVCfyKu3xNc0-4" value="Calculate_service_charge" style="swimlane;whiteSpace=wrap;html=1;" vertex="1" parent="1">
          <mxGeometry x="690" y="20" width="240" height="430" as="geometry" />
        </mxCell>
        <mxCell id="aQfyGNvGURDbzpAt9u-3-11" style="edgeStyle=none;curved=1;rounded=0;orthogonalLoop=1;jettySize=auto;html=1;exitX=0.5;exitY=1;exitDx=0;exitDy=0;entryX=0.5;entryY=0;entryDx=0;entryDy=0;fontSize=12;startSize=8;endSize=8;" edge="1" parent="Kv9q_rFlYVCfyKu3xNc0-4" source="xe0_JDkenMdLJBSgzlBz-4" target="2eKrWPMBMteFsVa5F8Ts-10">
          <mxGeometry relative="1" as="geometry" />
        </mxCell>
        <mxCell id="xe0_JDkenMdLJBSgzlBz-4" value="&quot;Enter last name&quot;&amp;nbsp;&lt;div&gt;GET lastName&lt;/div&gt;" style="shape=parallelogram;perimeter=parallelogramPerimeter;whiteSpace=wrap;html=1;fixedSize=1;" vertex="1" parent="Kv9q_rFlYVCfyKu3xNc0-4">
          <mxGeometry x="15" y="90" width="220" height="40" as="geometry" />
        </mxCell>
        <mxCell id="aQfyGNvGURDbzpAt9u-3-12" style="edgeStyle=none;curved=1;rounded=0;orthogonalLoop=1;jettySize=auto;html=1;exitX=0.5;exitY=1;exitDx=0;exitDy=0;entryX=0.5;entryY=0;entryDx=0;entryDy=0;fontSize=12;startSize=8;endSize=8;" edge="1" parent="Kv9q_rFlYVCfyKu3xNc0-4" source="2eKrWPMBMteFsVa5F8Ts-10" target="2eKrWPMBMteFsVa5F8Ts-11">
          <mxGeometry relative="1" as="geometry" />
        </mxCell>
        <mxCell id="2eKrWPMBMteFsVa5F8Ts-10" value="&quot;Enter amount of bathrooms: &quot;&amp;nbsp;&lt;div&gt;GET numBathrooms&lt;/div&gt;" style="shape=parallelogram;perimeter=parallelogramPerimeter;whiteSpace=wrap;html=1;fixedSize=1;" vertex="1" parent="Kv9q_rFlYVCfyKu3xNc0-4">
          <mxGeometry x="15" y="140" width="220" height="45" as="geometry" />
        </mxCell>
        <mxCell id="aQfyGNvGURDbzpAt9u-3-13" style="edgeStyle=none;curved=1;rounded=0;orthogonalLoop=1;jettySize=auto;html=1;exitX=0.5;exitY=1;exitDx=0;exitDy=0;entryX=0.5;entryY=0;entryDx=0;entryDy=0;fontSize=12;startSize=8;endSize=8;" edge="1" parent="Kv9q_rFlYVCfyKu3xNc0-4" source="2eKrWPMBMteFsVa5F8Ts-11" target="2eKrWPMBMteFsVa5F8Ts-13">
          <mxGeometry relative="1" as="geometry" />
        </mxCell>
        <mxCell id="2eKrWPMBMteFsVa5F8Ts-11" value="&quot;Enter amount of other rooms: &quot;&lt;div&gt;GET numOther&lt;/div&gt;" style="shape=parallelogram;perimeter=parallelogramPerimeter;whiteSpace=wrap;html=1;fixedSize=1;" vertex="1" parent="Kv9q_rFlYVCfyKu3xNc0-4">
          <mxGeometry x="15" y="200" width="220" height="40" as="geometry" />
        </mxCell>
        <mxCell id="aQfyGNvGURDbzpAt9u-3-14" style="edgeStyle=none;curved=1;rounded=0;orthogonalLoop=1;jettySize=auto;html=1;exitX=0.5;exitY=1;exitDx=0;exitDy=0;entryX=0.5;entryY=0;entryDx=0;entryDy=0;fontSize=12;startSize=8;endSize=8;" edge="1" parent="Kv9q_rFlYVCfyKu3xNc0-4" source="2eKrWPMBMteFsVa5F8Ts-13" target="Kv9q_rFlYVCfyKu3xNc0-7">
          <mxGeometry relative="1" as="geometry" />
        </mxCell>
        <mxCell id="2eKrWPMBMteFsVa5F8Ts-13" value="&lt;div&gt;&lt;span style=&quot;background-color: transparent; color: light-dark(rgb(0, 0, 0), rgb(255, 255, 255));&quot;&gt;serviceCharge=serviceCharge+(15*numBathrooms)+(10*numOther&lt;/span&gt;&lt;/div&gt;" style="rounded=0;whiteSpace=wrap;html=1;" vertex="1" parent="Kv9q_rFlYVCfyKu3xNc0-4">
          <mxGeometry x="15" y="260" width="220" height="50" as="geometry" />
        </mxCell>
        <mxCell id="aQfyGNvGURDbzpAt9u-3-15" style="edgeStyle=none;curved=1;rounded=0;orthogonalLoop=1;jettySize=auto;html=1;exitX=0.5;exitY=1;exitDx=0;exitDy=0;entryX=0.5;entryY=0;entryDx=0;entryDy=0;fontSize=12;startSize=8;endSize=8;" edge="1" parent="Kv9q_rFlYVCfyKu3xNc0-4" source="Kv9q_rFlYVCfyKu3xNc0-7" target="Kv9q_rFlYVCfyKu3xNc0-11">
          <mxGeometry relative="1" as="geometry" />
        </mxCell>
        <mxCell id="Kv9q_rFlYVCfyKu3xNc0-7" value="Set bathroomCost cost to 15*numBathrooms" style="rounded=0;whiteSpace=wrap;html=1;" vertex="1" parent="Kv9q_rFlYVCfyKu3xNc0-4">
          <mxGeometry x="10" y="320" width="230" height="40" as="geometry" />
        </mxCell>
        <mxCell id="aQfyGNvGURDbzpAt9u-3-16" style="edgeStyle=none;curved=1;rounded=0;orthogonalLoop=1;jettySize=auto;html=1;exitX=1;exitY=0.5;exitDx=0;exitDy=0;fontSize=12;startSize=8;endSize=8;" edge="1" parent="Kv9q_rFlYVCfyKu3xNc0-4" source="Kv9q_rFlYVCfyKu3xNc0-11">
          <mxGeometry relative="1" as="geometry">
            <mxPoint x="260" as="targetPoint" />
            <Array as="points">
              <mxPoint x="260" y="370" />
              <mxPoint x="260" y="270" />
            </Array>
          </mxGeometry>
        </mxCell>
        <mxCell id="Kv9q_rFlYVCfyKu3xNc0-11" value="Set otherCost to 10*numOther" style="rounded=0;whiteSpace=wrap;html=1;" vertex="1" parent="Kv9q_rFlYVCfyKu3xNc0-4">
          <mxGeometry x="10" y="370" width="220" height="40" as="geometry" />
        </mxCell>
        <mxCell id="Kv9q_rFlYVCfyKu3xNc0-5" value="Output" style="swimlane;whiteSpace=wrap;html=1;" vertex="1" parent="1">
          <mxGeometry x="980" y="20" width="270" height="460" as="geometry" />
        </mxCell>
        <mxCell id="aQfyGNvGURDbzpAt9u-3-17" style="edgeStyle=none;curved=1;rounded=0;orthogonalLoop=1;jettySize=auto;html=1;exitX=0.5;exitY=1;exitDx=0;exitDy=0;entryX=0.5;entryY=0;entryDx=0;entryDy=0;fontSize=12;startSize=8;endSize=8;" edge="1" parent="Kv9q_rFlYVCfyKu3xNc0-5" source="2eKrWPMBMteFsVa5F8Ts-9" target="Kv9q_rFlYVCfyKu3xNc0-6">
          <mxGeometry relative="1" as="geometry" />
        </mxCell>
        <mxCell id="2eKrWPMBMteFsVa5F8Ts-9" value="PUT &quot;Customer&#39;s last name: &quot;&lt;div&gt;+lastName&lt;/div&gt;" style="shape=parallelogram;perimeter=parallelogramPerimeter;whiteSpace=wrap;html=1;fixedSize=1;" vertex="1" parent="Kv9q_rFlYVCfyKu3xNc0-5">
          <mxGeometry x="10" y="30" width="230" height="50" as="geometry" />
        </mxCell>
        <mxCell id="aQfyGNvGURDbzpAt9u-3-18" style="edgeStyle=none;curved=1;rounded=0;orthogonalLoop=1;jettySize=auto;html=1;exitX=0.5;exitY=1;exitDx=0;exitDy=0;entryX=0.5;entryY=0;entryDx=0;entryDy=0;fontSize=12;startSize=8;endSize=8;" edge="1" parent="Kv9q_rFlYVCfyKu3xNc0-5" source="Kv9q_rFlYVCfyKu3xNc0-6" target="Kv9q_rFlYVCfyKu3xNc0-8">
          <mxGeometry relative="1" as="geometry" />
        </mxCell>
        <mxCell id="Kv9q_rFlYVCfyKu3xNc0-6" value="PUT &quot;Number of bathrooms cleaned: &quot;&lt;div&gt;+numBathrooms&lt;/div&gt;" style="shape=parallelogram;perimeter=parallelogramPerimeter;whiteSpace=wrap;html=1;fixedSize=1;" vertex="1" parent="Kv9q_rFlYVCfyKu3xNc0-5">
          <mxGeometry x="10" y="90" width="230" height="50" as="geometry" />
        </mxCell>
        <mxCell id="aQfyGNvGURDbzpAt9u-3-19" style="edgeStyle=none;curved=1;rounded=0;orthogonalLoop=1;jettySize=auto;html=1;exitX=0.5;exitY=1;exitDx=0;exitDy=0;entryX=0.5;entryY=0;entryDx=0;entryDy=0;fontSize=12;startSize=8;endSize=8;" edge="1" parent="Kv9q_rFlYVCfyKu3xNc0-5" source="Kv9q_rFlYVCfyKu3xNc0-8" target="Kv9q_rFlYVCfyKu3xNc0-13">
          <mxGeometry relative="1" as="geometry" />
        </mxCell>
        <mxCell id="Kv9q_rFlYVCfyKu3xNc0-8" value="PUT &quot;Cost to clean bathrooms : &quot;&amp;nbsp;&lt;div&gt;+bathroomCost&lt;/div&gt;" style="shape=parallelogram;perimeter=parallelogramPerimeter;whiteSpace=wrap;html=1;fixedSize=1;" vertex="1" parent="Kv9q_rFlYVCfyKu3xNc0-5">
          <mxGeometry x="5" y="150" width="240" height="50" as="geometry" />
        </mxCell>
        <mxCell id="aQfyGNvGURDbzpAt9u-3-21" style="edgeStyle=none;curved=1;rounded=0;orthogonalLoop=1;jettySize=auto;html=1;exitX=0.5;exitY=1;exitDx=0;exitDy=0;fontSize=12;startSize=8;endSize=8;" edge="1" parent="Kv9q_rFlYVCfyKu3xNc0-5" source="Kv9q_rFlYVCfyKu3xNc0-12" target="Kv9q_rFlYVCfyKu3xNc0-16">
          <mxGeometry relative="1" as="geometry" />
        </mxCell>
        <mxCell id="Kv9q_rFlYVCfyKu3xNc0-12" value="PUT &quot;Cost to clean other rooms: &quot;&amp;nbsp;&lt;div&gt;+otherCost&lt;/div&gt;" style="shape=parallelogram;perimeter=parallelogramPerimeter;whiteSpace=wrap;html=1;fixedSize=1;" vertex="1" parent="Kv9q_rFlYVCfyKu3xNc0-5">
          <mxGeometry x="5" y="270" width="240" height="50" as="geometry" />
        </mxCell>
        <mxCell id="Kv9q_rFlYVCfyKu3xNc0-13" value="PUT &quot;Number of other rooms cleaned: &quot; +numOther" style="shape=parallelogram;perimeter=parallelogramPerimeter;whiteSpace=wrap;html=1;fixedSize=1;" vertex="1" parent="Kv9q_rFlYVCfyKu3xNc0-5">
          <mxGeometry y="210" width="240" height="50" as="geometry" />
        </mxCell>
        <mxCell id="Kv9q_rFlYVCfyKu3xNc0-16" value="PUT &quot;Total cost of services: &quot;&amp;nbsp;&lt;div&gt;+serviceCharge&lt;/div&gt;" style="shape=parallelogram;perimeter=parallelogramPerimeter;whiteSpace=wrap;html=1;fixedSize=1;" vertex="1" parent="Kv9q_rFlYVCfyKu3xNc0-5">
          <mxGeometry x="10" y="330" width="240" height="50" as="geometry" />
        </mxCell>
        <mxCell id="aQfyGNvGURDbzpAt9u-3-20" style="edgeStyle=none;curved=1;rounded=0;orthogonalLoop=1;jettySize=auto;html=1;exitX=0.5;exitY=1;exitDx=0;exitDy=0;entryX=0.49;entryY=0.18;entryDx=0;entryDy=0;entryPerimeter=0;fontSize=12;startSize=8;endSize=8;" edge="1" parent="Kv9q_rFlYVCfyKu3xNc0-5" source="Kv9q_rFlYVCfyKu3xNc0-13" target="Kv9q_rFlYVCfyKu3xNc0-12">
          <mxGeometry relative="1" as="geometry" />
        </mxCell>
        <mxCell id="Kv9q_rFlYVCfyKu3xNc0-18" value="End" style="ellipse;whiteSpace=wrap;html=1;" vertex="1" parent="1">
          <mxGeometry x="2020" y="-25" width="120" height="80" as="geometry" />
        </mxCell>
        <mxCell id="aQfyGNvGURDbzpAt9u-3-8" style="edgeStyle=none;curved=1;rounded=0;orthogonalLoop=1;jettySize=auto;html=1;exitX=1;exitY=0;exitDx=0;exitDy=0;entryX=0.044;entryY=-0.002;entryDx=0;entryDy=0;entryPerimeter=0;fontSize=12;startSize=8;endSize=8;" edge="1" parent="1" source="Kv9q_rFlYVCfyKu3xNc0-4" target="Kv9q_rFlYVCfyKu3xNc0-5">
          <mxGeometry relative="1" as="geometry" />
        </mxCell>
        <mxCell id="w_F7xR8iNVxsriUdHIQA-2" value="" style="edgeStyle=none;curved=1;rounded=0;orthogonalLoop=1;jettySize=auto;html=1;exitX=1;exitY=0;exitDx=0;exitDy=0;entryX=0;entryY=0;entryDx=0;entryDy=0;fontSize=12;startSize=8;endSize=8;" edge="1" parent="1" source="Kv9q_rFlYVCfyKu3xNc0-5" target="w_F7xR8iNVxsriUdHIQA-1">
          <mxGeometry relative="1" as="geometry">
            <mxPoint x="1250" y="20" as="sourcePoint" />
            <mxPoint x="1428" y="22" as="targetPoint" />
          </mxGeometry>
        </mxCell>
        <mxCell id="w_F7xR8iNVxsriUdHIQA-8" style="edgeStyle=orthogonalEdgeStyle;rounded=0;orthogonalLoop=1;jettySize=auto;html=1;entryX=0.5;entryY=0;entryDx=0;entryDy=0;exitX=0;exitY=0.5;exitDx=0;exitDy=0;" edge="1" parent="1" source="w_F7xR8iNVxsriUdHIQA-9">
          <mxGeometry relative="1" as="geometry">
            <mxPoint x="1140" y="-105" as="sourcePoint" />
            <mxPoint x="540" y="20" as="targetPoint" />
          </mxGeometry>
        </mxCell>
        <mxCell id="w_F7xR8iNVxsriUdHIQA-1" value="&quot;Would you like to enter another name?&quot;&amp;nbsp;" style="rhombus;whiteSpace=wrap;html=1;" vertex="1" parent="1">
          <mxGeometry x="1340" y="-10" width="210" height="110" as="geometry" />
        </mxCell>
        <mxCell id="w_F7xR8iNVxsriUdHIQA-9" value="yes" style="text;html=1;align=center;verticalAlign=middle;whiteSpace=wrap;rounded=0;" vertex="1" parent="1">
          <mxGeometry x="1400" y="-70" width="60" height="30" as="geometry" />
        </mxCell>
        <mxCell id="w_F7xR8iNVxsriUdHIQA-11" style="edgeStyle=orthogonalEdgeStyle;rounded=0;orthogonalLoop=1;jettySize=auto;html=1;exitX=0.5;exitY=0;exitDx=0;exitDy=0;entryX=0.528;entryY=0.8;entryDx=0;entryDy=0;entryPerimeter=0;" edge="1" parent="1" source="w_F7xR8iNVxsriUdHIQA-1" target="w_F7xR8iNVxsriUdHIQA-9">
          <mxGeometry relative="1" as="geometry" />
        </mxCell>
        <mxCell id="w_F7xR8iNVxsriUdHIQA-13" value="" style="edgeStyle=none;curved=1;rounded=0;orthogonalLoop=1;jettySize=auto;html=1;exitX=1;exitY=0;exitDx=0;exitDy=0;entryX=0;entryY=0;entryDx=0;entryDy=0;fontSize=12;startSize=8;endSize=8;" edge="1" parent="1" source="w_F7xR8iNVxsriUdHIQA-1" target="w_F7xR8iNVxsriUdHIQA-12">
          <mxGeometry relative="1" as="geometry">
            <mxPoint x="1488" y="5" as="sourcePoint" />
            <mxPoint x="1618" y="2" as="targetPoint" />
          </mxGeometry>
        </mxCell>
        <mxCell id="w_F7xR8iNVxsriUdHIQA-12" value="no" style="text;html=1;align=center;verticalAlign=middle;whiteSpace=wrap;rounded=0;" vertex="1" parent="1">
          <mxGeometry x="1580" width="60" height="30" as="geometry" />
        </mxCell>
        <mxCell id="w_F7xR8iNVxsriUdHIQA-26" value="End_of_job" style="swimlane;whiteSpace=wrap;html=1;" vertex="1" parent="1">
          <mxGeometry x="1700" y="-20" width="250" height="200" as="geometry" />
        </mxCell>
        <mxCell id="w_F7xR8iNVxsriUdHIQA-29" style="edgeStyle=orthogonalEdgeStyle;rounded=0;orthogonalLoop=1;jettySize=auto;html=1;exitX=1;exitY=0.5;exitDx=0;exitDy=0;" edge="1" parent="w_F7xR8iNVxsriUdHIQA-26" source="Kv9q_rFlYVCfyKu3xNc0-17">
          <mxGeometry relative="1" as="geometry">
            <mxPoint x="290" y="30" as="targetPoint" />
          </mxGeometry>
        </mxCell>
        <mxCell id="Kv9q_rFlYVCfyKu3xNc0-17" value="PUT &quot;Thank you for using our service!&quot;" style="shape=parallelogram;perimeter=parallelogramPerimeter;whiteSpace=wrap;html=1;fixedSize=1;" vertex="1" parent="w_F7xR8iNVxsriUdHIQA-26">
          <mxGeometry x="5" y="70" width="240" height="40" as="geometry" />
        </mxCell>
        <mxCell id="w_F7xR8iNVxsriUdHIQA-27" style="edgeStyle=orthogonalEdgeStyle;rounded=0;orthogonalLoop=1;jettySize=auto;html=1;exitX=1;exitY=0;exitDx=0;exitDy=0;entryX=0.011;entryY=0.092;entryDx=0;entryDy=0;entryPerimeter=0;" edge="1" parent="1" source="w_F7xR8iNVxsriUdHIQA-12" target="w_F7xR8iNVxsriUdHIQA-26">
          <mxGeometry relative="1" as="geometry" />
        </mxCell>
        <mxCell id="w_F7xR8iNVxsriUdHIQA-28" style="edgeStyle=orthogonalEdgeStyle;rounded=0;orthogonalLoop=1;jettySize=auto;html=1;exitX=1;exitY=0;exitDx=0;exitDy=0;entryX=0.083;entryY=0.363;entryDx=0;entryDy=0;entryPerimeter=0;" edge="1" parent="1" source="w_F7xR8iNVxsriUdHIQA-26" target="Kv9q_rFlYVCfyKu3xNc0-18">
          <mxGeometry relative="1" as="geometry" />
        </mxCell>
      </root>
    </mxGraphModel>
  </diagram>
</mxfile>
